<!-- Created with Inkscape (http://www.inkscape.org/) -->
<svg xmlns="http://www.w3.org/2000/svg" xml:space="preserve" width="180" height="92" viewBox="0 0 60 30.667"><g fill="#666"><g stroke-width="0"><path d="M52.224 6.22q-1.416 0-2.335.556a3.36 3.36 0 0 0-1.356 1.537q-.435.993-.435 2.335 0 1.344.435 2.348.448 1.005 1.356 1.561.92.557 2.323.557 1.416 0 2.324-.557a3.35 3.35 0 0 0 1.343-1.548q.448-1.005.448-2.348 0-1.344-.448-2.336a3.28 3.28 0 0 0-1.343-1.549q-.908-.556-2.312-.556zm0 1.524q1.161 0 1.67.775.508.774.508 2.142 0 1.355-.508 2.142-.509.774-1.682.774-1.15 0-1.67-.774-.52-.788-.52-2.142 0-1.368.52-2.142t1.682-.775M38.646 6.352v8.64h1.634v-4.065a63 63 0 0 0-.061-1.234l-.048-1.235h.048l3.764 6.535h2.323v-8.64H44.66v4.09l.049 1.186q.024.592.036 1.198h-.036l-3.752-6.475zM32.753 6.22q-1.416 0-2.336.556a3.36 3.36 0 0 0-1.355 1.537q-.436.993-.436 2.335 0 1.344.436 2.348.447 1.005 1.355 1.561.92.557 2.324.557 1.416 0 2.323-.557a3.35 3.35 0 0 0 1.343-1.548q.448-1.005.448-2.348 0-1.344-.448-2.336a3.28 3.28 0 0 0-1.343-1.549q-.907-.556-2.31-.556zm0 1.524q1.161 0 1.67.775.508.774.508 2.142 0 1.355-.508 2.142-.509.774-1.682.774-1.15 0-1.67-.774-.52-.788-.52-2.142 0-1.368.52-2.142t1.682-.775M21.027 6.352v8.64h1.828v-3.315h.98l2.057 3.316h2.033l-2.541-3.764a3.5 3.5 0 0 0 .786-.496q.375-.315.593-.75a2.25 2.25 0 0 0 .23-1.041q0-1.306-.847-1.948-.835-.641-2.602-.642zm1.828 1.5h.556q.895 0 1.307.267.424.255.424.872 0 .592-.4.895-.388.303-1.294.303h-.594zM11.77 6.352v8.64h1.827v-3.726h3.425v3.727h1.827v-8.64h-1.827V9.74h-3.425V6.352zM7.727 6.232q-1.307 0-2.214.568a3.67 3.67 0 0 0-1.368 1.574q-.471 1.005-.472 2.311 0 1.331.412 2.335a3.3 3.3 0 0 0 1.27 1.55q.871.544 2.203.544.69 0 1.247-.109a6 6 0 0 0 1.125-.339V13.13q-.618.217-1.15.338-.52.12-1.053.121-1.137 0-1.657-.75-.51-.763-.509-2.142 0-1.368.557-2.154c.557-.786.907-.786 1.61-.786q.471 0 .956.169.495.17.98.399l.593-1.488A6.5 6.5 0 0 0 9.01 6.4a5 5 0 0 0-1.283-.17" style="paint-order:markers fill stroke" transform="matrix(.89779 0 0 .77217 3.066 15.314)"/></g><path d="M35.63 14.267v.517H24.37v-.517zm-.444-.774v.645H24.815v-.645zM25.9 6.522l.123.054.063.87.061 1.415v1.361l-.061 1.696-.01 1.142-.176.046h-.618l-.186-.046-.072-1.142-.062-1.687v-1.36l.062-1.424.057-.875.129-.05zm8.889 0 .124.054.061.87.062 1.415v1.361l-.062 1.696-.01 1.142-.175.046h-.618l-.186-.046-.072-1.142-.062-1.687v-1.36l.062-1.424.057-.875.128-.05zm-6.223 0 .124.054.062.87.062 1.415v1.361l-.062 1.696-.01 1.142-.175.046h-.619l-.186-.046-.071-1.142-.062-1.687v-1.36l.062-1.424.056-.875.129-.05zm3.408 0 .124.054.061.87.063 1.415v1.361l-.063 1.696-.01 1.142-.175.046h-.618l-.186-.046-.072-1.142-.062-1.687v-1.36l.062-1.424.057-.875.129-.05zm3.21-1.162v.903h-10.37V5.36zm-5.291-1.679 5.44 1.086-.219.334H24.696l-.326-.271z"/></g></svg>