<!-- Created with Inkscape (http://www.inkscape.org/) -->
<svg xmlns="http://www.w3.org/2000/svg" xml:space="preserve" width="180" height="64" viewBox="0 0 60 21.333"><path fill="#666" d="M58.041 17.016v.651H45.596v-.651zm-.491-.977v.814H46.088v-.814zm-10.262-8.79.136.069.07 1.097.067 1.784v1.716l-.068 2.138-.012 1.441-.193.057h-.683l-.206-.057-.079-1.44-.069-2.128v-1.715l.07-1.796.062-1.103.142-.063zm9.824 0 .137.069.069 1.097.068 1.784v1.716l-.068 2.138-.012 1.441-.194.057h-.683l-.205-.057-.08-1.44-.068-2.128v-1.715l.068-1.796.063-1.103.142-.063zm-6.877 0 .137.069.068 1.097.068 1.784v1.716l-.068 2.138-.012 1.441-.193.057h-.683l-.206-.057-.079-1.44-.068-2.128v-1.715l.068-1.796.063-1.103.142-.063zm3.766 0 .137.069.068 1.097.069 1.784v1.716l-.069 2.138-.01 1.441-.194.057h-.684l-.205-.057-.08-1.44-.068-2.128v-1.715l.068-1.796.063-1.103.142-.063zm3.549-1.465v1.138H46.088V5.783zM51.7 3.667l6.013 1.37-.24.42H45.955l-.36-.342z"/><g stroke-width="0"><path d="M37.279 7.432q-1.03 0-1.7.405-.66.396-.986 1.117-.316.723-.316 1.7c0 .977.105 1.22.316 1.707q.327.73.987 1.136.67.405 1.69.405 1.03 0 1.69-.405t.977-1.127q.326-.731.326-1.708c0-.977-.109-1.218-.326-1.7a2.4 2.4 0 0 0-.977-1.125q-.66-.405-1.681-.405m0 1.108q.844 0 1.215.564c.37.564.369.895.369 1.558q0 .986-.37 1.559-.37.563-1.223.563-.837 0-1.215-.563-.378-.573-.378-1.559 0-.994.378-1.558c.378-.564.66-.564 1.224-.564M27.401 7.528v6.286h1.188v-2.958a46 46 0 0 0-.043-.898l-.036-.898h.036l2.737 4.754h1.69V7.528h-1.197v2.976l.035.862q.018.432.027.872h-.027l-2.728-4.71zM23.114 7.432q-1.03 0-1.7.405-.66.396-.986 1.117-.316.723-.316 1.7c0 .977.105 1.22.316 1.707q.327.73.987 1.136.67.405 1.69.405 1.03 0 1.69-.405t.977-1.127q.326-.731.326-1.708c0-.977-.109-1.218-.326-1.7a2.4 2.4 0 0 0-.977-1.125q-.66-.405-1.681-.405m0 1.108q.845 0 1.215.564c.37.564.37.895.37 1.558q0 .986-.37 1.559-.37.563-1.224.563-.837 0-1.215-.563-.378-.573-.378-1.559 0-.994.378-1.558c.378-.564.66-.564 1.224-.564M14.583 7.528v6.286h1.33v-2.412h.712l1.497 2.412H19.6l-1.848-2.738q.308-.14.572-.361.273-.229.431-.546.168-.326.168-.757 0-.95-.616-1.417-.608-.467-1.893-.467zm1.33 1.092h.404q.652 0 .95.194.309.184.309.633 0 .432-.29.652-.282.22-.943.22h-.43zM7.848 7.528v6.286h1.33v-2.712h2.491v2.712H13V7.528h-1.33v2.466H9.178V7.528zM4.908 7.44q-.95 0-1.61.414A2.67 2.67 0 0 0 2.302 9q-.344.73-.344 1.68 0 .97.3 1.7.298.722.924 1.127.634.396 1.602.396.502 0 .907-.08.405-.078.818-.246v-1.118a8 8 0 0 1-.836.246 3.4 3.4 0 0 1-.766.089q-.827 0-1.206-.546-.37-.555-.37-1.558 0-.995.406-1.567c.406-.572.66-.572 1.17-.572q.344 0 .696.123.36.123.713.29l.431-1.083a4.7 4.7 0 0 0-.907-.317 3.6 3.6 0 0 0-.933-.123" style="paint-order:markers fill stroke"/></g></svg>