<!-- Created with Inkscape (http://www.inkscape.org/) -->
<svg xmlns="http://www.w3.org/2000/svg" xml:space="preserve" width="180" height="64" viewBox="0 0 60 21.333"><g fill="#666"><path d="M19.096 14.699v.423h-7.558v-.423zm-.299-.635v.529h-6.96v-.53zM12.565 8.35l.083.045.042.713.042 1.16v1.114l-.042 1.39-.007.937-.118.037h-.414l-.125-.037-.048-.937-.042-1.382v-1.115l.042-1.167.038-.717.086-.04zm5.967 0 .083.045.041.713.042 1.16v1.114l-.042 1.39-.007.937-.117.037h-.415l-.125-.037-.048-.937-.042-1.382v-1.115l.042-1.167.038-.717.086-.04zm-4.177 0 .083.045.042.713.041 1.16v1.114l-.041 1.39-.007.937-.118.037h-.415l-.125-.037-.048-.937-.041-1.382v-1.115l.041-1.167.038-.717.087-.04zm2.287 0 .083.045.042.713.042 1.16v1.114l-.042 1.39-.007.937-.118.037h-.415l-.124-.037-.049-.937-.041-1.382v-1.115l.041-1.167.039-.717.086-.04zm2.155-.952v.74h-6.96v-.74zm-3.552-1.376 3.652.89-.147.274h-6.993l-.219-.222z"/><g stroke-width="0"><path d="M40.534 10.47q-1.03 0-1.7.405-.66.396-.986 1.118-.316.722-.316 1.699c0 .977.105 1.22.316 1.708q.327.73.987 1.135.67.405 1.69.405 1.03 0 1.69-.405t.977-1.126q.326-.73.326-1.709c0-.979-.109-1.218-.326-1.699a2.4 2.4 0 0 0-.977-1.126q-.66-.405-1.681-.405m0 1.109q.844 0 1.215.564.369.563.369 1.557 0 .987-.37 1.559-.37.563-1.223.563-.837 0-1.215-.563-.378-.572-.378-1.559 0-.995.378-1.557.378-.564 1.224-.564M30.656 10.566v6.286h1.188v-2.958a46 46 0 0 0-.043-.898l-.036-.898h.036l2.737 4.754h1.69v-6.286h-1.197v2.976l.035.863q.018.431.027.871h-.027l-2.728-4.71zM26.369 10.47q-1.03 0-1.7.405-.66.396-.986 1.118-.315.722-.316 1.699c0 .977.105 1.22.316 1.708q.327.73.987 1.135.67.405 1.69.405 1.03 0 1.69-.405t.977-1.126q.326-.73.326-1.709c0-.979-.109-1.218-.326-1.699a2.4 2.4 0 0 0-.977-1.126q-.66-.405-1.681-.405m0 1.109q.844 0 1.215.564.37.563.37 1.557 0 .987-.37 1.559-.37.563-1.224.563-.837 0-1.215-.563-.378-.572-.378-1.559 0-.995.378-1.557.378-.564 1.224-.564M17.838 10.566v6.286h1.33V14.44h.712l1.497 2.412h1.478l-1.848-2.738q.309-.14.572-.361.273-.229.431-.546.168-.326.168-.757 0-.95-.616-1.417-.608-.467-1.893-.467zm1.33 1.092h.404q.652 0 .95.194.309.184.309.633 0 .432-.29.652-.282.22-.943.22h-.43zM8.163 10.478q-.95 0-1.61.414a2.67 2.67 0 0 0-.995 1.145q-.344.73-.344 1.68 0 .97.3 1.7.298.722.924 1.127.634.396 1.602.396.502 0 .907-.08.405-.078.818-.246v-1.118a8 8 0 0 1-.836.246 3.4 3.4 0 0 1-.766.089q-.827 0-1.206-.546-.37-.555-.37-1.558 0-.995.406-1.567.405-.573 1.17-.573.344 0 .696.123.36.125.713.29l.431-1.082a4.7 4.7 0 0 0-.907-.317 3.6 3.6 0 0 0-.933-.123" style="paint-order:markers fill stroke" transform="translate(-3.476 -7.964)scale(1.3739)"/></g></g></svg>